<?xml version="1.0" encoding="utf-8"?>
<!-- Generator: Adobe Illustrator 22.1.0, SVG Export Plug-In . SVG Version: 6.00 Build 0)  -->
<svg version="1.1" id="ING_DiBa" xmlns="http://www.w3.org/2000/svg" xmlns:xlink="http://www.w3.org/1999/xlink" x="0px" y="0px"
	 viewBox="0 0 170.5 42.6" style="enable-background:new 0 0 170.5 42.6;" xml:space="preserve">
<style type="text/css">
	.st0{fill:#FF6200;}
	.st1{fill:#000066;}
</style>
<path class="st0" d="M126.8,41.4c-0.6-1-0.7-2.6-0.7-2.9c0-0.6,0-1.4,0.3-1.9l-1.2,0.2c-0.3,0.4-0.5,0.7-0.5,0.9l0.6-0.2
	c0.1,0,0.2,0.2,0.3,0.4c-0.1,0.6-0.8,0.6-1,0.8c-0.3,1.1,0.7,1.8,0.8,2.7H126.8z M170.3,26.8c0-4.9-2-9.9-5.7-13.5
	c-1.6-1.6-3.3-2.3-4.7-3.9c-0.7-0.7-1.2-1.4-1.7-2.3c-0.6-0.6-0.9-0.9-1.6-1.2c0.1,0.3,0.2,0.7,0.3,1H157c-0.6,0-1.1-0.3-1.6-0.7
	l0.4-0.5c-0.1-0.2-0.4-0.2-0.7-0.2c-1.8-0.3-3.5,0.7-5.2,1v0.2c1.1,0.3,1.3,1.7,2,2.4c0.1,0,0.2,0,0.7,0c0.2,0,0.6,0.2,0.8,0.2
	c0-0.2-0.2-0.7-0.2-0.7c0.2-0.2,0.5-0.2,0.7,0c0.6,0.3,1.4-0.2,1.9,0.7c-0.7,0-1.4,0-1.9,0.4c0,0.1,0.3,0.3,0.2,0.5
	c-0.6-0.2-1.2,0-1.5-0.4l-0.1,0.1c0.7,0.8,1.7,1.4,2.7,1.8c1.5,0.2,2.7-0.4,4.2-0.1c5.1,2.5,8.7,8.3,8.7,14.2
	c0,8.3-4.8,11.6-7.7,11.6c-0.6,0-1.4-0.3-1.8-0.7c0.3-1.2,0.5-2.5,0.5-4.6c0-4.8-1.9-10-4.5-12.7c-1.2-1.2-2.6-2.3-4-2.3
	c-0.7,0-1.4,0-1.8,0.6c-0.6,0.5-0.9,1.4-0.8,1.9c-0.9,0.7-2.4,1-3.5,1c-1.2,0-2.8-0.5-4.2-1.6c0-0.5,0-1,0-1.7
	c-0.3-0.1-1.5-0.8-0.9-1.3c0.3,0.1,0.6,0.3,0.7,0.4c-0.1-0.7-0.1-1.7-0.7-2.3c-0.2,0-0.6,0-0.9-0.2c-0.3-0.3-0.7-0.8-0.7-1.4
	c0.3,0.6,0.9,0.3,1.2,0.7c-0.6-1.4-0.3-1.9-1.4-3.9c-0.2-1-1.2-1.6-1.9-2.3c-0.3-0.2-0.5-0.6-0.9-0.6c-0.4-0.1-0.4-0.7-0.4-1
	c0.1,0,0.4,0.2,0.7,0.3c-0.7-1.5-1.1-3.2-2.6-4.1L132.2,2c-0.6,0-1.2,0-1.8,0c0.2-0.2,0.7-0.3,1-0.6C131,1.1,130.8,1,130.1,1
	c-0.3,0.1-0.7,0.5-1.2,0.5h-0.1c0-0.3-0.1-0.8,0.5-1c-0.7-0.1-1.2-0.1-2,0c-0.1,0.6-0.5,0.9-0.5,1.4c-0.3,0.2-0.5,0.6-0.8,0.9
	c0-0.7,0.3-1.4,0.5-2c-0.5,0.1-1,0.5-1.3,0.5c-0.9-0.5-2-0.9-2.5-0.9c0.7,0.4,0.3,1.2,0.5,1.8l-0.5-0.2c-0.1-0.5-0.7-0.8-0.8-1.4
	c-0.7,0-1.1,0.2-1.7,0.6v0.1c0.3,0,0.8,0.3,1,0.7c-0.8,0-1.4-0.3-2.2-0.3c0,0,0-0.1-0.1-0.1c-0.3,0.1-0.6,0.5-0.8,0.7
	c-0.8,0.7-1.4,1.2-1.7,2.3c0.2,0,0.6,0,0.7,0.1c-0.5,0.1-0.7,0.7-1.1,0.8c0,0.4,0,1.1,0,1.7c-0.3,0.3-0.8,0.7-1,1.4
	c-0.6,1.8-0.7,3.8-0.7,6.1c-0.1,0.5-0.3,0.6-0.6,0.7v1.8c0,0,0.7-0.6,1-0.8c0,0.4,0,1.1,0,1.4c-0.5,0-0.8,0.6-0.8,0.9
	c0,0.4,0.1,0.9,0.1,1.4c0,0.2,0,0.2,0.1,0.5c0-0.2,0.2-0.5,0.6-0.6c0,0,0.2-0.2,0.7-0.2c-0.3,0.3-0.5,0.8-0.7,1.2
	c-0.3,0.3-0.3,0.3-0.3,0.3s-0.1,0.2-0.1,0.3c0.5,2.3,1.1,4.4,2,6.6c-0.9,1.5-1.9,4.3-2.6,7c-0.6-0.6-1.4-0.7-2-0.7
	c-0.6,0.1-1.3,0.3-1.8,1c-0.7-0.3-1.6-0.2-2,0.2c-0.9,0.8-0.9,1.3-0.9,1.9c-0.2,0.2-0.7,0.8-0.7,1.6c0,1,0.1,1.7,0.7,2.6h17
	c-0.1-0.3-0.3-0.8-0.6-1c-0.3-0.7-0.1-1.6-0.1-2.3c0.3-0.7,0.7-1.3,1.1-1.9c0.1-0.3,0-0.3,0.1-0.4l0.8-0.1c0.5,0,0.8-0.3,1.4-0.3
	c0.3,0.5,0.3-0.3,0.9-0.6c1.2-0.2,2.4,0,3.1,0.9c0,0.1,0.1,0.1,0.1,0.2c-0.1,0-0.3,0-0.6,0c-0.6-0.2-1.4-0.6-2.2-0.2
	c0,0.2-0.1,0.2-0.1,0.6c0,0.2,0,0.2,0,0.6c0.4,0,0.8,0.4,1.2,0.7c0.2-0.3,0.8-0.7,1.3-0.7c0.6,0,1.4,0.3,1.4,1.2c0,0.5,0,0.9,0,1.2
	c0.5,0.5,1,0.6,1.6,0.8c-0.2,0.5-0.6,0.5-0.9,0.5h-0.9c-0.1-0.1-0.3-0.1-0.3-0.5c-0.3,0.5-0.6,0.9-0.8,1.4h13.1
	c-0.2-0.4-0.4-0.8-0.6-1c-0.2-0.7-0.2-1.6-0.2-2.3l1.2-1.7c0.7,0,1.2-0.2,2.5-0.3c0.2-0.3,0-0.5,1-0.5c0.8,0,1.4,0.1,1.6,0.2
	c0.1,0.2,0.1,0.2,0,0.5c-0.2,0.2-0.7-0.2-1-0.1c-0.2,0.2,0.1,0.3,0.1,0.6c0.2,0.2-1-0.2-1-0.2s-0.2,0.7-0.3,0.9c0,0,0.5,0.4,0.7,0.7
	c0.2,0.3-0.3,0.7-0.3,1c-0.2-0.1-0.7-0.5-0.7-0.3c-0.2,0.9,0,1.7-0.1,2.6c0.5,0,0.8,0,1.2,0l0.1-1.9c0.1-1.1,1.5-3.2,2.3-3.2
	c0.5,0,0.8,0.2,1.1,0.5c0.2,0.4,0.7,0.7,0.7,0.9c0,0.2-0.3,0.3-0.8,0.3c-0.2,0-0.2-0.3-0.6-0.6l-0.7,0.7c0,0,0.8,0.7,0.8,1.1
	c0,0.6-0.1,0.8-0.5,1.1l-0.7-1.4c-0.3,0-0.9,0.7-0.9,1c0,0.5-0.2,0.7-0.2,1.4h6.9c0.8,0,1.5-0.2,2.3-0.7c0.5,0,0.8,0,1.4,0
	c2.8,0,5-0.8,7-2.8C168.7,35.3,170.3,31,170.3,26.8z M146,37.1l-1.1,0.1c0.5,0.2,0.5,0.8,0.5,0.9c0,0.3-0.2,0.7-0.5,0.9
	c-0.2-0.2-0.2-0.6-0.4-0.9c-0.2,0-0.3,0.6-0.3,0.8c0,1,0.5,1.8,0.8,2.5h1c-0.1-0.9-0.3-1.7-0.3-2.7C145.5,38.1,145.8,37.4,146,37.1z
	 M131.1,38.4c0-0.5-0.3-0.6-0.8-0.6c-0.2,0-0.7,0.3-0.7,0.6c0,0.5-0.2,2.9-0.2,2.9h0.7C130.5,40.4,131.1,39,131.1,38.4z M128.7,38.3
	c-0.1,0,0.1,0.2-1-0.9c-0.2,0-0.6,0.7-0.6,0.9c0,0.9,0.2,2.2,0.6,3.1h0.9C128.6,40.4,128.7,39.2,128.7,38.3z M158.3,9.9
	c-0.2-0.5-0.7-0.7-1-0.7c-0.3-0.5-0.8-1-1.2-1c0.3,0,0.8-0.3,1.4-0.3c0.2,0.6,0.7,0.9,0.8,1.4L158.3,9.9z M154.9,7.5
	c-0.4,0-0.8,0-1.2,0c-0.2-0.3-0.6,0-0.8,0c-0.2,0-0.3,0-0.8-0.3c0.7,0,1-0.3,1.6-0.6C154.1,6.9,154.6,7.1,154.9,7.5z M152.2,20.4
	c-0.7-0.2-1.2-0.6-1.8-0.6c-0.2,0-1.2,0.3-1.4,0.6c-0.3-0.5,0.2-1.4,0.7-1.6c0.5-0.2,0.7-0.1,0.9,0c0,0.7,0.8,0.3,1.2,0.6
	C152,19.7,152.1,20,152.2,20.4z M152.1,22.1c-0.6,0-0.7-0.1-1.2-0.1c-0.6,0-1.2,0.2-1.6,0.8c-0.2-0.5-0.1-0.7,0-1
	c0.3-0.3,0.9-0.8,1.4-0.8C151.5,21,152.1,21.6,152.1,22.1z M154.7,24.6c-0.9-0.6-2.3-0.9-3-0.9c-0.4,0-1.8,0.6-2.2,1l-0.2-1
	c0.7-0.1,0.7-0.7,1.1-0.7c0.3,0,0.8-0.1,1.1-0.1c0.3,0,0.5-0.2,0.6-0.2c0.6,0,0.3,0.6,0.7,0.6c0.3,0,0.6-0.2,0.8-0.2
	C154.1,23,154.6,23.9,154.7,24.6z M155,27.1c-0.8,0-1.6-0.2-1.7-0.6c-0.2-0.2,0-0.7-0.6-0.7c-0.2,0-0.6,0.3-0.6,0.3
	c-0.2,0.1-0.8-0.3-0.8,0c0,0.6-0.4,0.8-1,0.8c-0.2,0-0.4,0-0.7-0.1c0-0.3,0-0.8,0-1.1c1.5,0,1.4-0.5,2-0.5c0.4,0,0.7,0.2,1.1,0.2
	c0.6,0,0.2-0.2,0.8-0.2c0.6,0,0.8,0.5,1.1,0.6C154.7,26.1,155,26.6,155,27.1z M154,29.5c-0.3-0.1-1.1-0.2-1.1-0.6
	c0-0.5-0.2-0.6-0.8-0.6c-0.4,0-0.7,0.1-1.4,0.3c0,0-0.3-0.5-0.5-0.9c0.2-0.1,1.1-0.3,1.5-0.3c0.8,0,1.6,0,1.6,0.3
	C153.3,28.2,154,28.4,154,29.5z M134.4,11.9c0,0.1-0.2,1.1-0.2,1.1l-0.9,0.2l0.6-2.5C134.1,11.2,134.4,11.6,134.4,11.9z M156.2,33.5
	c0,0.7,0,0.9-0.3,1.5l-0.7-1c0.2-0.3,0.2-0.8,0.6-1.4C155.8,32.5,156.2,33.3,156.2,33.5z M153.5,32c-0.8,0-0.3-1.6-2-1.6
	c-0.3,0-0.5,0.6-1,0.7c0-0.1,0.1-0.8,0.1-0.8c0-0.2,0.1-0.7,0.6-0.9c0.8,0,0.6,0.3,1.3,0.6c0.3,0.1,0.6,0.3,1,0.3V32z M146.4,25.6
	c-1-0.6-1.6-1.6-2.5-2.6c0.9,0,1.1,0.9,1.8,1c0.2,0.2,0.5,0.3,0.7,0.7C146.4,25,146.4,25.2,146.4,25.6z M136.8,17.3
	c-0.7,0-1-0.3-1.4-1c0-0.3-0.1-0.8,0-1.4c0.2,0.5,0.2,0.7,0.5,0.9c0.5-0.2,0.5,0.3,0.6,0.4C136.5,16.6,136.8,16.9,136.8,17.3z
	 M155.4,36.4c-0.2,0.3-0.2,0.3-0.3,0.7c0-0.5-0.7-0.9-1.1-1.8l0.5-0.8c0.3,0.2,0.8,0.6,0.8,1.1c0,0-0.1,0.2,0,0.5
	C155.2,36.2,155.4,36.2,155.4,36.4z M153.1,33.2c0,0.4-0.1,0.6-0.2,1.1c-0.8-0.1-0.8-1-0.9-1.1c-0.5-0.7-1.3-0.1-1.8-0.1
	c-0.2-0.7,0.1-0.7,0.1-1.1c0.3,0,0.7-0.2,1,0c0.5-0.2,0.8,0.3,1.4,0.3C152.8,32.5,153,33.1,153.1,33.2z M147.4,28.6
	c0,0.5-0.2,0.8-0.1,1.2c-0.2-0.7-0.7-1.4-0.9-2c0-0.1-0.1-0.1,0.1-0.2c0.1,0,0.6,0,0.6,0.1C147.2,27.9,147.4,28.2,147.4,28.6z
	 M137.5,19.7c-0.1,0.5-0.6,0-0.7,0c-0.3,0-0.8,0-1,0c-0.1-0.2-0.2-0.3-0.2-0.6c0.5-0.1,0.8-0.3,1.1-0.1
	C137,19.4,137.2,19.7,137.5,19.7z M140,22.3c-0.3,0.3-1.2,0.5-1.9-0.1l0.9-0.4C139.4,22.1,139.8,22.2,140,22.3z M145.8,28.7
	c0,0.7-0.1,1.5-0.1,2.3c-0.3,0-0.3-0.2-0.3-0.7c-0.1-0.7-0.3-1.2-0.6-1.9c-0.2-0.9-0.8-1.6-1.2-2.7c-0.1-0.5-0.7-0.7-1.1-1
	c0.6,0,1.1,0,1.6,0.5c0,0.2,0.1,0.3,0.5,0.7c0.8,0,0.6,1,1.2,1.5c-0.3,0.3-0.4,0.5-0.7,0.7C145.4,28.2,145.7,28.4,145.8,28.7z
	 M141.4,25.4c0,0.3-0.2,0.5-0.4,0.7c0,0-0.4-0.6-0.4-0.8c0-0.5,0-0.7,0.1-1C141,24.6,141.4,25,141.4,25.4z M152,35.6
	c0,0-0.2,0.2-0.2,0.2c-0.5-0.2-0.8-0.4-1.5-0.4c0-0.5-0.3-1-0.6-1c-0.7,0-0.6,0.5-1.1,0.5l1-1c0.1-0.2,0.1-0.2,0.3-0.2
	c0.3,0.2,0.4,0.3,0.8,0.3c0,0.2,0,0.3-0.1,0.7c0.3,0.2,0.6-0.1,0.8,0.2C151.7,35,152,35.2,152,35.6z M142.9,27.8
	c0,0.2-0.3,0.4-0.5,0.4c0,0-0.6-0.6-0.7-1.1c-0.1-0.5,0.3-1.2,0.3-1.2c0.1,0,0.2,0.2,0.3,0.2c0.1,0.1,0,0.5,0.1,0.8
	C142.9,27.2,143.1,27.6,142.9,27.8z M134.2,16.9c-1.4-0.7-2.8-1.3-4.5-1.4c0,0.3,0,0.7-0.1,0.8c1.3,0.6,2.5,1.2,3.7,2.2v1
	c-1.1-1.1-2.4-2.3-3.8-2.6c-0.1,0.2-0.5,0.5-0.6,0.9c-0.8-0.6-1.7-1.1-2.6-1.2c-0.3,0-0.6-1.2-0.6-1.2c0.6-0.2,0.9-0.6,1.1-1.1
	c0.1,0,0.3,0,0.5,0c0.3,0,0.3-0.2,0.3-0.6c0-0.7-1.5-0.7-2.2-0.7c-0.8,0-1.4,0-1.8,0.3c-0.2,0-0.1,0.3-0.1,0.6
	c0,0.1,0.3,0.3,0.3,0.3c0.2,0,0.5-0.2,0.7-0.2c-0.1,0.7,0.1,1,0.8,1.4l-0.1,1.1c-1.4,0-2.3,0.5-3.3,1c-0.3-0.2-0.6-0.6-0.8-0.9
	c-1.4,0.4-3.7,2.3-3.7,2.3s0-0.5,0-0.8c1-0.9,2.3-1.4,3.3-1.9v-0.8c-0.5-0.2-0.9,0-1.4,0c-1,0.1-2,0.6-2.6,1.1
	c0-0.3-0.1-0.8-0.1-0.8c1.3-0.7,2.7-1.2,4.2-1c0-0.1,0-0.5,0-0.5c-0.1-0.2-0.1-0.6-0.3-0.6c-0.7-0.7-1.4-1.7-1.4-2.4l0.5-0.2
	c-0.2-0.6-0.5-2.3,0-2.9c-0.7-0.3-1.3-0.9-1.5-1.4c-0.2-0.6-0.5-0.9-0.6-1.5c0.3-0.7,0.6-0.9,0.9-1.6c0.2,0,0.5-0.1,0.6-0.3
	c0.6-0.1,0.9-0.7,1.6-0.3c0.5,0,0.9,0.2,1.3,0.3c0,0.2,0,0.3,0.2,0.6c0.7,0,0.7,0.7,1,1.2c0.3,0.1,0.7,0.1,0.9,0.1
	c0.7,0.2,1.2,0.2,1.5,0.5c0.9-0.5,1.8-0.6,2.8-0.5c0.1-0.3,0.3-0.8,0.5-1.3c0.1,0.3,0.1,0,0.3,0c0.4-0.3,0.9-0.9,1.7-0.7
	c0.5,0.3,1.2,0.1,1.7,0.7c0.3,0.4,0.6,1.1,0.9,1.7c-0.3,0.7,0,1.6-0.7,1.9l-0.7,0.7c-0.2,0-0.2,0.2-0.6,0.2c0.3,0.8,0.1,1.9-0.2,2.7
	c0.2-0.1,0.6-0.1,0.6-0.4c0.1,0.1,0,0.3,0,0.4c0,0.2,0,0.3,0,0.3c0,0.6-0.3,1.1-0.8,1.6c-0.2,0.7-0.8,1.6-1.5,1.7v0.2
	c1.6,0,3,0.5,4.6,1.2V16.9z M138.8,24l-0.6,0.2c-1.2,0-1.8-0.3-2.4-0.8c0.5,0,1-0.6,1-0.6C137.4,23.4,138.2,23.9,138.8,24z
	 M135.6,21.4c-0.6,0-1.4,0.3-1.8-0.3c0.2-0.1,0.5-0.5,0.7-0.7L135.6,21.4z M144.8,32c0,0.6-0.7,1.2-0.9,1.7c0.2-0.6,0.2-1.7,0-1.7
	c-0.2-0.1-0.7,0-0.7-0.2c0-0.3,0.1-0.8,0.1-1c0-0.5-0.3-0.7-0.3-0.9c0-0.7,0.8-0.8,1-1.2c0.1,0.5,0.1,0.9,0.1,1.5
	c0,0.2,0.3,0.9,0,1.5C144.1,31.9,144.8,31.6,144.8,32z M142.2,30.7c0,0.7-0.4,1.2-0.6,1.9c0-0.7-0.1-1.3-0.6-1.7
	c0-0.2,0.3-0.2,0.1-0.6c0,0-0.6-0.3-0.6-0.8c0-0.5,0.4-0.8,0.6-1.1c0-0.1,0.5,0.2,0.5,0.9c0,0.1,0,0.5-0.1,0.7
	C141.4,30.4,142.2,30.4,142.2,30.7z M132.9,22.7c-0.6,0.1-1-0.5-1.6-0.7c-0.2-0.6-0.2-1.3-0.5-1.6c0.5,0.3,1.5,0.3,1.2,1.4
	C132.2,22.1,132.6,22.3,132.9,22.7z M136.1,25.9c-0.5,0-1.2,0-1.7-0.3c-0.7-0.3-0.9-0.6-1.2-0.9c0.5-0.3,1-0.3,1.2-0.5
	C134.9,24.7,135.3,25.5,136.1,25.9z M117.2,8.5l-0.8,0.2l0.1-0.6c0.2-0.3,0.3-0.7,0.7-1V8.5z M131.6,24.2c-0.5,0.1-1.2,0.3-1.5-0.2
	c-0.6-1-0.3-1.9,0-2.7c0.2,0.6,0.3,1.3,0.4,1.9C130.7,23.7,131.4,23.9,131.6,24.2z M128.4,18c-0.1,0.7-0.3,1.7-1,2.2
	c0-0.5-0.2-0.7-0.5-1c-0.1,0,0,0.3-0.1,0.3c0,0.2-0.2,0.7-0.2,1.1c-0.2,0.1-0.7,0.3-1.1,0.1v-0.3c-0.1-0.2-0.1-0.7-0.1-0.9l-0.1-0.1
	c-0.3,0.1-0.3,0.3-0.3,0.6c-0.1,0.2-0.3,0.5-0.3,0.8c-0.5,0-0.7-0.1-1-0.3v-1c0-0.2,0-0.2-0.1-0.2l-0.6,0.6
	c-0.5-0.3-0.6-1.2-0.6-1.8c1.8-1,4.1-0.7,5.4-0.1C127.9,17.9,128.2,17.9,128.4,18z M134.2,27.2c0,0-0.2,0-0.3,0
	c-1.2,0.4-2.3-0.3-3.3-1c0.6-0.2,1.4-0.3,2-0.3l0.3,0.7C133.3,26.6,133.9,26.9,134.2,27.2z M117.4,10.1l-0.6,0.7
	c0.1,1.1-0.3,1.9-0.3,2.9l-0.6-1.8c0.1-0.5,0.2-0.9,0.6-1.4L117.4,10.1z M129,24.7c-0.6-0.3-1.6-0.5-1.4-1.1
	c0.2-0.6,0.6-0.7,0.8-0.9C128.5,23.4,128.6,24,129,24.7z M139.4,36.2h-0.1c-0.2-0.3-0.3-0.6-0.6-0.6c0.3-1.2-0.3-2.3-0.6-3.3V32
	c0.3,0.6,1.2,1.1,1.1,1.7C139.4,34.7,139.4,35.6,139.4,36.2z M136.8,32c-0.6,0-1,0-1.4-0.6c-0.1,0-0.3-0.3-0.4-0.1
	c-0.6,0.5-1.1-0.3-1.8-0.2c-0.3,0.3-0.7,0.6-1.2,0.7v-0.1c0-0.3,0.2-0.7,0.7-0.9c0.7,0.2,1.2-1.2,1.9-0.5c0.3,0.1,0.7,0.1,0.9,0.1
	C136.2,30.7,136.4,31.4,136.8,32z M126.5,22.9c0,0.8-0.1,1.8-0.9,2.2l-0.2-1.1C125.7,23.7,126,23.4,126.5,22.9z M130.2,27.8
	c-0.2,0.2-0.8,0.4-1.3,0.4c-0.7-0.6-1.1-1.2-1.8-2.1l1.8,0.3C129.3,26.7,129.9,27.5,130.2,27.8z M137,34.3c-0.4-0.3-1.1-0.3-1.4-0.9
	c-0.4-0.1-0.8-0.1-1.3-0.1c-0.5,0.1-1,0.1-1.5,0.1c-0.1,0,0-0.1-0.2-0.2c-0.7,0.2-1.4,0.2-2,0.9l0.6-1.4c0.5,0,0.8-0.2,1-0.2
	c0.5-0.1,0.8-0.1,1.1-0.1v0.1c1.2,0,2.7-0.1,3.6,0.9L137,34.3z M124.1,24.7c-0.7-0.7-1.2-1.2-1.2-1.9c0.3,0,0.7,0,1,0.2
	C123.9,23.5,124.1,24,124.1,24.7z M121.9,21.4l-0.3,1.4c-0.3-0.7-0.7-1.3-0.8-2.1L121.9,21.4z M138.1,36.5c-0.1,0.2-0.3,0.9-0.5,1.3
	c-0.2-0.7-0.5-1.7-1.2-1.7c-0.1-0.4-0.2-0.6-0.7-0.9l-0.9-0.1c0.1,0.5,0.8,0.5,0.3,1c0.4,0.3,0.8,0.3,1,0.9c0.2,0.3,0,0.8,0.1,1
	l-0.7,0.3c0-0.6,0.1-1.7-0.6-1.9c-0.7,0.2-0.8-0.7-1.2-0.9c-0.2,0-0.2-0.6-0.6-0.3c-0.6,0.3-1.2,0-1.8,0.3l0.6-0.9
	c0.5-0.3,0.9-0.2,1.4-0.3l0.9-0.1c0.9,0,1.7,0.4,2.6,0.8c0.5,0.2,0.7,0.6,0.7,1C137.7,36.2,138.1,36.2,138.1,36.5z M129.2,31.3H129
	c-0.1,0-0.9-0.3-1.1-0.6c-0.1-0.3-0.1-0.7-0.1-0.7c0.3,0,0.6,0,0.9,0L129.2,31.3z M120.5,23.2c-0.7-0.2-1.5-0.9-1.8-1.4
	c-0.2-0.5-0.3-1-0.3-1.4c0.4,0,0.7,0.3,0.8,0.6v0.1C119.8,21.8,120.3,22.3,120.5,23.2z M125.9,27.2c-0.1,0.6-0.5,0.8-1,1.6
	c-0.3,0.2-1,0.3-1.7,0.7c0.1-0.3,0.4-0.4,0.7-0.8c0.2-0.3,0.7-0.9,0.8-1.2C125.2,27.2,125.4,27.2,125.9,27.2z M134.2,38.1l-0.3,0.3
	c-0.3-0.3-0.1-1.2-0.7-1.4c-0.6,0-1-0.5-1.2-0.7l0.5-0.2c0,0,0.2-0.1,0.5,0c0.2,0.2,0.5,0.3,0.5,0.6c0.2,0.3,0.6,0,0.8,0.3
	C134.2,37.4,134.3,37.9,134.2,38.1z M123.9,26.3c-0.3,0.7-0.7,1.3-1.4,1.5c-0.3,0-0.9,0.2-1.6,0c0.3-0.2,0.7-0.3,1.1-0.6l0.9-0.9
	H123.9z M126.1,31.4c-0.5,0.3-0.8,0.3-1.4,0.2l-0.7-0.9c0.6,0,1.2,0,1.7,0L126.1,31.4z M117.9,22.9c-0.6,0.6-1.1,0.8-1.4,1.5
	c0-0.3-0.1-0.7-0.2-0.9c0.1-0.5,0.4-0.7,0.6-0.8C117.3,22.7,117.5,22.7,117.9,22.9z M119.2,24.6c0,0.5-0.2,1-0.7,1.6
	c-0.1,0.1-0.4,0.3-0.4,0.3c0-0.7,0.3-1.2,0.3-1.8C118.7,24.6,119,24.3,119.2,24.6z M120.8,25.9l-0.5,1.7c-0.6,0.4-1.3,0.2-2,0.2
	c0.8-0.2,1.5-1.2,2-1.9C120.5,25.8,120.6,25.9,120.8,25.9z M121.4,31.6c0,0.3-0.1,1.7-0.1,1.7c-0.2-0.8-0.8-1.6-1.5-1.6
	c-0.3-0.3-0.7-0.7-0.8-1c-0.3-0.3-0.6,0-1.1-0.3c-0.5,0-1,0-1.5,0.3v-0.3l0.8-0.9c0.8,0.1,1.7,0,1.9,0.6c0.6,0.3,1.1,0.7,1.2,0.9
	c0,0.1,0,0.1,0,0.3C120.7,31.4,121.1,31.5,121.4,31.6z M120.8,35.2l-0.8,0.7c-0.2-0.2,0-0.8-0.3-1.1c0-0.2,0.2-0.3,0.1-0.4
	c-0.1-0.2-1.4-0.7-1.4-0.7c-0.4-0.3-1-0.7-1.5-1.1c-0.5-0.1-0.8,0.1-1.4,0.2c0-0.1,0-0.2,0-0.2c0.2-0.5,0.2-1,0.9-1
	c0.3,0,0.8,0,1,0.3c0.5,0,0.7,0.5,1,0.6c0.5,0.6,1,0.8,1.3,1c0,0.3,0.1,0.6,0.3,0.7C120.8,34,120.6,34.7,120.8,35.2z M119.1,36.8
	l-0.3,1.1l-0.7-2c-0.9-0.8-1.9-0.9-2.5-1.4c-0.5-0.1-0.5,0.2-0.7,0c0-0.2,0-0.6,0.3-0.9h0.7l0.7,0.3c0.3,0.3,1.1,0.3,1.1,1
	c0,0.1-0.1,0.2,0.2,0.7l1.1,0.2L119.1,36.8z M116,37.9c0,0.9-1.5,2.2-1.5,2.2c0-0.6,0.3-1.2,0.3-1.9c0,0-0.5-0.5-0.9-0.5
	c-0.3,0.2-0.3,0.5-0.5,0.8c-0.3,0.7-1,1.4-1.1,2c-0.1,0-0.1-0.1-0.1-0.1c0-1.1,0.1-3.1,0.8-3.8c0.6-0.7,1-0.7,1.7-0.8l0.6,0.1
	l-0.5,0.7C115.3,36.8,116,37.2,116,37.9z M112,37.2c0,0.5-0.1,0.9-0.3,1.2c-0.1-0.5-0.4-1-1-1c-0.4,0.9-0.6,1.2-0.1,2.6
	c-0.3,0.3-0.6,0.5-1,0.7c-0.2-0.5-0.2-1.2-0.2-1.7c0-0.8,0.1-1.6,0.3-2.2c0.3-0.3,0.6-0.9,0.9-1.2h1.2c-0.5,0-0.5,0.5-0.5,0.8
	C111.6,36.5,112,36.6,112,37.2z M109.2,38.4c-0.1,0-0.5-0.3-0.8-0.3c-0.3,0.7,0,1.1,0,1.9c0,0.3-0.1,0.7-0.1,0.7
	c-0.2,0-0.6-0.5-0.7-0.9V38l0.9-1.2C109.2,37.2,109.4,37.9,109.2,38.4z M132.4,7.2c0.2-0.6,0.2-1.6-0.2-2.1
	c-0.2-0.5-0.8-0.7-1.4-1.1L130,4.4c-0.4,0.2-0.6,0.7-0.6,1.2c0.7,0.3,1.5,1.2,1.9,1.9h0.3C131.9,7.2,132.2,7.5,132.4,7.2z
	 M128.6,7.8c0-0.3-0.1-0.3-0.2-0.3c-0.6,0-0.6-0.9-1-0.7c-0.2,0-0.5-0.2-0.8,0c0,0.1,0,0.1,0.2,0.1c0.6,0,0.3,0.8,0.8,0.9
	C127.8,7.8,128.3,7.8,128.6,7.8z M130.3,9.2c0,0,0.2,0,0-0.1l-2.4-0.3c-0.2,0.3-0.8,0.3-0.8,0.7h-0.2c0.2,0.9,0.2,1.9,0.2,2.9
	c0.5,0.1,0.9,0.3,0.9,1c0.4,0.2,0.9,0.3,1.3,0.7c0.2-0.1,0.3-0.4,0.4-0.8c-0.4-0.6-1.4-0.2-1.4-1.2l-0.7-0.2c0-0.7,0-1.3-0.1-1.8
	l0.1-0.1c0,0.1,0.1,0.2,0.3,0.4c0.4,0,0.9,0.1,1.3-0.2c0.2-0.1,0.2-0.7,0.4-0.7C130,9.4,130.2,9.4,130.3,9.2z M124.8,6.8
	c-0.2-0.2-0.9,0.1-1.2,0.2c-0.5,0.1-0.8,0.5-0.8,0.8h1.2C124.1,7.5,124.5,7.1,124.8,6.8z M122.3,5.6c-0.1-1.1-1.4-1.2-1.9-1.7h-0.5
	c-0.9,0.3-1.1,1.2-1.2,2c0.3,1,1,0.3,1.4,1C120.6,6.6,121.7,5.8,122.3,5.6z M129,15.9v-0.6h-1.1l-0.1,0.1L129,15.9z M123.9,9.4
	c0-0.2-0.2-0.5-0.6-0.7c-0.9,0-1.7,0-2.5,0h-0.2c0,0.5,0.3,0.7,0.7,0.7c0,0.5,0.3,0.5,0.5,0.7c0.3,0.2,0.5,0.2,0.8,0
	c0.3,0.2,0.5-0.2,0.6,0c0,0.7,0,1-0.1,1.5c-0.1,0.8-0.8,0.7-1.4,1c0,0.3-0.3,0.9,0,1.2c0.3-0.2,0.6-0.3,1.1-0.6
	c0-0.3,0.3-0.7,0.8-0.9C123.5,11.4,123.9,10.4,123.9,9.4z M123,15.4c-0.2-0.5-0.8,0-1.4-0.2c0,0.2,0,0.5,0.3,0.7
	C122.3,15.5,122.8,15.4,123,15.4z"/>
<g>
	<path class="st1" d="M94.6,30.7v8.2c-4.5,2.3-8.8,3.4-13,3.4c-11.8,0-18.9-7-18.9-15.9c0-9.5,8.1-17.5,18.4-17.5
		c2.6,0,4.5,0.5,6.5,1.1c1.5,0.5,2.4,1,3.3,1c0.8,0,1-1.4,1.1-2.2h1.1l1,11h-1.3c-0.6-2.2-1.6-4-2.9-5.2c-2.1-2.2-5.1-3.3-8.4-3.3
		c-7.1,0-11.2,5.7-11.2,14.2c0,8.4,5.1,14.2,11.8,14.2c2,0,3.8-0.5,6.1-1.5v-8.4c0-2.7-0.4-3.7-4.3-3.7v-1.2h14.3v1.2
		C94.5,26.2,94.6,27.3,94.6,30.7L94.6,30.7z"/>
	<path class="st1" d="M55.4,17.3v24.4h-1.9L29.3,16.5c0.1,0.7,0.1,1.2,0.1,1.9v15.3c0,4.8,0,6.5,4.3,6.5v1.2H22.4v-1.2
		c4.3,0,4.3-2,4.3-6.5V16.3c0-2.6,0-5.4-4.5-5.4V9.6h10.7l19.9,20.6c-0.1-0.6-0.1-0.9-0.1-1.7V17.3c0-4.5,0.1-6.5-4.2-6.5V9.6h11.3
		v1.2C55.6,10.8,55.4,12.7,55.4,17.3L55.4,17.3z"/>
	<path class="st1" d="M0.5,41.5v-1.2c2.7,0,4.6-0.2,4.6-4.2V15c0-4.1-1.5-4.2-4.6-4.2V9.6h15.9v1.2c-3.3,0-4.6,0.1-4.6,4.2v21
		c0,4,1.7,4.2,4.6,4.2v1.2H0.5L0.5,41.5z"/>
</g>
</svg>
